<?xml version="1.0" encoding="iso-8859-1"?>
<!DOCTYPE svg PUBLIC "-//W3C//DTD SVG 1.1//EN" "http://www.w3.org/Graphics/SVG/1.1/DTD/svg11.dtd">
<svg 
 version="1.1" xmlns="http://www.w3.org/2000/svg" xmlns:xlink="http://www.w3.org/1999/xlink" x="0px" y="0px" width="512px"
	 height="512px" viewBox="0 0 512 512" style="enable-background:new 0 0 512 512;" xml:space="preserve"
><g id="afcae5a789ccd549f9c6e2a2f814ac68"><g></g><g fill="#ffffff"><path style="display: inline;" d="M240.207,42.31H128.713c0-23.091,24.959-41.81,55.747-41.81S240.207,19.219,240.207,42.31z
		 M480.84,358.2c0,84.666-68.634,153.3-153.3,153.3c-74.163,0-136.022-52.665-150.226-122.636c2.372,0.1,4.75,0.18,7.146,0.18
		c7.178,0,14.236-0.512,21.179-1.397c13.286,54.996,62.881,95.98,121.901,95.98c69.16,0,125.427-56.267,125.427-125.427
		c0-61.632-44.697-112.987-103.37-123.445c0,0-4.858-0.577-12.231-0.796c-5.394,79.771-71.764,142.82-152.905,142.82
		c-84.666,0-153.3-68.634-153.3-153.298c0-67.717,43.924-125.137,104.823-145.429l-7.27-21.808h111.494l-7.27,21.808
		c55.495,18.492,96.858,67.817,103.769,127.674c10.328,0.247,12.443,0.72,12.443,0.72C423.58,216.95,480.84,280.871,480.84,358.2z
		 M309.336,234.981c-8.807,0.783-12.496,1.607-12.496,1.607c-46.964,11.861-83.444,50.279-92.515,98.273
		c-6.456,1.15-13.086,1.785-19.865,1.785c-2.906,0-5.781-0.148-8.635-0.363c9.174-64.067,57.931-115.353,120.716-128.246
		c0,0,4.814-1.022,12.136-1.749c-8.407-61.05-60.893-108.234-124.217-108.234c-69.161,0-125.426,56.266-125.426,125.426
		c0,69.159,56.266,125.429,125.426,125.429C249.74,348.91,303.511,298.769,309.336,234.981z"></path></g></g></svg>